<svg xmlns="http://www.w3.org/2000/svg" width="275.816" height="275.815" viewBox="0 0 275.816 275.815"><path d="M50.262 257.613c-3.355 1.466-5.706 4.808-5.706 8.7 0 5.236 4.264 9.497 9.5 9.497 5.24 0 9.502-4.26 9.502-9.497 0-4.546-3.21-8.336-7.475-9.273l-22.86-26.43v-84.223l80.165-80.173c.45-.45.698-1.057.698-1.687V18.664c4.082-1.07 7.113-4.75 7.113-9.164 0-5.24-4.265-9.5-9.503-9.5-5.236 0-9.5 4.264-9.5 9.5 0 4.413 3.033 8.093 7.11 9.164v44.874l-80.16 80.17c-.448.45-.703 1.056-.703 1.69v86.107c0 .57.206 1.125.583 1.56l21.235 24.548zm3.795 3.977c2.604 0 4.723 2.12 4.723 4.724s-2.12 4.718-4.723 4.718-4.72-2.114-4.72-4.718c0-2.605 2.12-4.724 4.72-4.724zM106.977 9.5c0-2.604 2.117-4.72 4.72-4.72 2.605 0 4.724 2.115 4.724 4.72 0 2.606-2.118 4.723-4.722 4.723-2.605.005-4.72-2.117-4.72-4.723z"/><path d="M70.08 257.637L46.707 230.61v-84.223l80.167-80.173c.448-.45.698-1.057.698-1.687V17.362c0-1.32-1.07-2.39-2.39-2.39s-2.39 1.07-2.39 2.39v46.176l-80.166 80.17c-.448.45-.698 1.056-.698 1.686v86.104c0 .578.212 1.13.583 1.567l23.957 27.694c.474.546 1.136.83 1.806.83.556 0 1.108-.196 1.563-.583 1-.863 1.106-2.37.245-3.37z"/><path d="M150.444 62.835L69.58 143.71c-.93.933-.93 2.444 0 3.378.47.467 1.08.695 1.687.695.61 0 1.223-.233 1.692-.695l80.158-80.17h56.112c1.068 4.075 4.756 7.11 9.16 7.11 5.238 0 9.5-4.262 9.5-9.5 0-5.242-4.262-9.5-9.5-9.5-4.404 0-8.092 3.033-9.16 7.11h-57.097c-.634 0-1.242.254-1.69.697zm67.952-3.028c2.604 0 4.724 2.116 4.724 4.72 0 2.605-2.12 4.724-4.724 4.724s-4.723-2.118-4.723-4.722c0-2.605 2.12-4.72 4.723-4.72z"/><path d="M247.37 76.512c0-1.318-1.073-2.39-2.39-2.39h-89.104c-.635 0-1.242.254-1.69.705l-68.295 68.3c-4.715.545-8.4 4.52-8.4 9.39 0 5.24 4.26 9.496 9.5 9.496s9.5-4.26 9.5-9.497c0-3.584-2.016-6.67-4.945-8.284l65.316-65.325h88.11c1.326-.005 2.4-1.074 2.4-2.395zm-155.655 76c0 2.603-2.117 4.723-4.72 4.723-2.605 0-4.722-2.12-4.722-4.724 0-2.603 2.116-4.722 4.72-4.722 2.606 0 4.722 2.12 4.722 4.723z"/><path d="M218.42 93.622c1.067 4.082 4.755 7.113 9.16 7.113 5.237 0 9.503-4.264 9.503-9.502 0-5.24-4.266-9.5-9.503-9.5-4.405 0-8.093 3.034-9.16 7.11h-57.215c-.625 0-1.23.254-1.685.698l-41.768 41.526c-5.066.2-9.133 4.35-9.133 9.465 0 5.242 4.262 9.5 9.5 9.5 5.237 0 9.5-4.263 9.5-9.5 0-3.408-1.814-6.376-4.515-8.054l39.08-38.858h56.233v.004zm9.16-7.11c2.605 0 4.725 2.116 4.725 4.72 0 2.605-2.12 4.724-4.724 4.724-2.603 0-4.722-2.12-4.722-4.723 0-2.605 2.12-4.72 4.723-4.72zM118.123 145.26c-2.604 0-4.723-2.12-4.723-4.725 0-2.606 2.118-4.723 4.722-4.723 2.604 0 4.72 2.117 4.72 4.723 0 2.6-2.116 4.724-4.72 4.724z"/><path d="M86.995 275.815c5.24 0 9.5-4.266 9.5-9.502 0-5.24-4.26-9.503-9.5-9.503-1.253 0-2.448.262-3.542.705l-23.268-26.9v-84.228l80.164-80.173c.447-.45.697-1.057.697-1.687V17.362c0-1.32-1.07-2.39-2.39-2.39s-2.39 1.07-2.39 2.39v46.176l-80.16 80.17c-.45.45-.697 1.056-.697 1.686v86.104c0 .578.206 1.13.583 1.567l23.636 27.32c-1.315 1.635-2.13 3.674-2.13 5.93-.005 5.235 4.256 9.5 9.495 9.5zm0-14.225c2.604 0 4.72 2.12 4.72 4.724s-2.116 4.718-4.72 4.718c-2.604 0-4.72-2.114-4.72-4.718 0-2.605 2.115-4.724 4.72-4.724z"/></svg>