<svg xmlns="http://www.w3.org/2000/svg" width="2560" height="1700"><defs><linearGradient id="a"><stop offset="0" stop-color="#f1b97c"/><stop offset=".33" stop-color="#633947"/><stop offset=".387" stop-color="#374837"/><stop offset="1" stop-color="#1c241f"/></linearGradient></defs><rect width="2560" height="1700" ry="1.022" color="#000" fill="#37483e" overflow="visible"/><g stroke="#d3bc5f" fill="none"><path d="M1265.46 1179.338V757.91l-25.714-25.715M1285.373 1210.053V517.195l-31.428-31.428" stroke-width="3"/><path d="M1305.373 1233.624v-831.43l-57.857-57.856M1326.373 1189.338V635.053l75.715-75.715v-95.714" stroke-width="3"/><path d="M1346.373 1170.053V731.48l161.43-161.427V541.48M1264.95 819.254l-77.277-77.277V655.61l-123.49-123.492v-39.143" stroke-width="3"/><path d="M1176.814 644.75l28.537-28.537V589.95M1187.673 701.066l56.82-56.82v-66.42l-9.974-9.974M1084.385 552.32v-32.07M1113.175 581.11v-35.607M1144.49 612.425V588.94l57.2-57.2V401.05M1201.69 434.386l34.66-34.66v-17.868" stroke-width="3"/><path d="M1201.69 496.005l-32.515-32.514h-14.332M1169.364 564.064l-50.38-50.38V387.918M1118.983 426.223l15.91-15.91M1118.983 452.57l-42.68-42.68M1064.182 512.168h-20.455M1187.673 726.32h-56.063l-50.003-50.003v-63.134l-16.92-16.92M1045.82 595.054l-25.75-25.75" stroke-width="3"/><path d="M1081.607 648.538L1046 612.93v-44.194M1154.843 726.32v-36.366l-41.92-41.92v-16.668M1132.62 667.73l9.596-9.595M1108.376 703.086h-42.426M1239.696 794h-43.436l-39.396-39.396M1170.5 768.24h-34.85M1285.373 722.28l-37.485-37.487v-14.03M1265.96 497.86v-52.363M1305.873 590.96l59.846-59.846V370.746l-15.03-15.03M1325.313 571.52v-47.23" stroke-width="3"/><path d="M1365.72 499.036l-39.847-39.846v-27.835M1365.72 401.05l-39.847-39.845M1365.72 425.294h55.804l32.83-32.83v-23.738M1406.37 425.294v-51.517M1402.088 532.37h35.598l25.76-25.758v-55.054M1425.564 532.37v-45.456M1367.84 710.013V652.58l33.913-33.913M1453.704 624.15l-9.957-9.957v-31.315l10.1-10.1M1470.372 607.483h23.883l45.637-45.638M1490.07 587.785V455.6l22.8-22.802" stroke-width="3"/><path d="M1490.07 504.086l20.275-20.275v-20.13M1265.46 1179.338l-57.436 57.436v72.707M1208.024 1248.053h-34.722v20M1285.373 1210.053l-45.32 45.32v36.68l19.91 19.91v13.804" stroke-width="3"/><path d="M1305.373 1233.624l-41.535 41.536 40.035 36.035v27.143M1305.373 1217.91l37.322 37.32v42.25M1326.373 1189.338l56.25 54.25v38.465M1346.373 1170.053l70.036 64.035v25.68" stroke-width="3"/><path d="M1022.09 565.516c0 3.038-2.462 5.5-5.5 5.5-3.037 0-5.5-2.462-5.5-5.5 0-3.037 2.463-5.5 5.5-5.5 3.038 0 5.5 2.463 5.5 5.5zM1051.5 563.236c0 3.038-2.463 5.5-5.5 5.5-3.038 0-5.5-2.462-5.5-5.5 0-3.037 2.462-5.5 5.5-5.5 3.037 0 5.5 2.463 5.5 5.5zM1066.182 592.263c0 3.037-2.462 5.5-5.5 5.5-3.037 0-5.5-2.463-5.5-5.5 0-3.038 2.463-5.5 5.5-5.5 3.038 0 5.5 2.462 5.5 5.5zM1043.727 512.168c0 3.037-2.463 5.5-5.5 5.5-3.038 0-5.5-2.463-5.5-5.5 0-3.038 2.462-5.5 5.5-5.5 3.037 0 5.5 2.462 5.5 5.5zM1069.682 487.475c0 3.037-2.462 5.5-5.5 5.5-3.037 0-5.5-2.463-5.5-5.5 0-3.038 2.463-5.5 5.5-5.5 3.038 0 5.5 2.462 5.5 5.5zM1089.885 514.75c0 3.036-2.462 5.5-5.5 5.5-3.037 0-5.5-2.464-5.5-5.5 0-3.04 2.463-5.5 5.5-5.5 3.038 0 5.5 2.46 5.5 5.5zM1118.675 540.003c0 3.037-2.463 5.5-5.5 5.5-3.038 0-5.5-2.463-5.5-5.5 0-3.038 2.462-5.5 5.5-5.5 3.037 0 5.5 2.462 5.5 5.5zM1118.422 625.866c0 3.037-2.462 5.5-5.5 5.5s-5.5-2.463-5.5-5.5c0-3.038 2.462-5.5 5.5-5.5s5.5 2.462 5.5 5.5zM1124.483 382.42c0 3.036-2.463 5.5-5.5 5.5-3.038 0-5.5-2.464-5.5-5.5 0-3.04 2.462-5.5 5.5-5.5 3.037 0 5.5 2.46 5.5 5.5zM1144.625 406.33c0 3.036-2.462 5.5-5.5 5.5s-5.5-2.464-5.5-5.5c0-3.04 2.462-5.5 5.5-5.5s5.5 2.46 5.5 5.5zM1078.016 405.905c0 3.037-2.463 5.5-5.5 5.5-3.038 0-5.5-2.463-5.5-5.5 0-3.038 2.462-5.5 5.5-5.5 3.037 0 5.5 2.462 5.5 5.5zM1154.843 463.49c0 3.038-2.462 5.5-5.5 5.5-3.037 0-5.5-2.462-5.5-5.5 0-3.037 2.463-5.5 5.5-5.5 3.038 0 5.5 2.463 5.5 5.5zM1207.19 395.55c0 3.038-2.463 5.5-5.5 5.5-3.038 0-5.5-2.462-5.5-5.5 0-3.037 2.462-5.5 5.5-5.5 3.037 0 5.5 2.463 5.5 5.5zM1241.85 376.358c0 3.037-2.462 5.5-5.5 5.5s-5.5-2.463-5.5-5.5c0-3.038 2.462-5.5 5.5-5.5s5.5 2.462 5.5 5.5zM1271.46 439.997c0 3.038-2.462 5.5-5.5 5.5s-5.5-2.462-5.5-5.5c0-3.037 2.462-5.5 5.5-5.5s5.5 2.463 5.5 5.5zM1210.85 584.45c0 3.037-2.46 5.5-5.5 5.5-3.037 0-5.5-2.463-5.5-5.5 0-3.038 2.463-5.5 5.5-5.5 3.04 0 5.5 2.462 5.5 5.5zM1331.373 425.855c0 3.038-2.462 5.5-5.5 5.5-3.037 0-5.5-2.462-5.5-5.5 0-3.037 2.463-5.5 5.5-5.5 3.038 0 5.5 2.463 5.5 5.5zM1330.813 518.79c0 3.037-2.463 5.5-5.5 5.5-3.038 0-5.5-2.463-5.5-5.5 0-3.038 2.462-5.5 5.5-5.5 3.037 0 5.5 2.462 5.5 5.5zM1411.87 368.277c0 3.037-2.46 5.5-5.5 5.5-3.036 0-5.5-2.463-5.5-5.5 0-3.038 2.464-5.5 5.5-5.5 3.04 0 5.5 2.462 5.5 5.5zM1459.854 363.226c0 3.037-2.463 5.5-5.5 5.5-3.038 0-5.5-2.463-5.5-5.5 0-3.038 2.462-5.5 5.5-5.5 3.037 0 5.5 2.462 5.5 5.5zM1468.945 446.058c0 3.038-2.462 5.5-5.5 5.5s-5.5-2.462-5.5-5.5c0-3.037 2.462-5.5 5.5-5.5s5.5 2.463 5.5 5.5zM1407.588 458.124c0 3.038-2.463 5.5-5.5 5.5-3.038 0-5.5-2.462-5.5-5.5s2.462-5.5 5.5-5.5c3.037 0 5.5 2.462 5.5 5.5zM1431.064 481.414c0 3.037-2.462 5.5-5.5 5.5-3.037 0-5.5-2.463-5.5-5.5 0-3.038 2.463-5.5 5.5-5.5 3.038 0 5.5 2.462 5.5 5.5zM1515.845 458.18c0 3.038-2.462 5.5-5.5 5.5s-5.5-2.462-5.5-5.5c0-3.037 2.462-5.5 5.5-5.5s5.5 2.463 5.5 5.5zM1513.302 535.98c0 3.04-2.462 5.5-5.5 5.5s-5.5-2.46-5.5-5.5c0-3.036 2.462-5.5 5.5-5.5s5.5 2.464 5.5 5.5zM1249.48 340.588c0 3.038-2.462 5.5-5.5 5.5-3.037 0-5.5-2.462-5.5-5.5 0-3.037 2.463-5.5 5.5-5.5 3.038 0 5.5 2.463 5.5 5.5zM1327.695 357.553c0 3.037-2.463 5.5-5.5 5.5-3.038 0-5.5-2.463-5.5-5.5 0-3.038 2.462-5.5 5.5-5.5 3.037 0 5.5 2.462 5.5 5.5zM1351.98 351.48c0 3.04-2.462 5.5-5.5 5.5-3.037 0-5.5-2.46-5.5-5.5 0-3.036 2.463-5.5 5.5-5.5 3.038 0 5.5 2.464 5.5 5.5zM1522.095 429.073c0 3.038-2.462 5.5-5.5 5.5s-5.5-2.462-5.5-5.5c0-3.037 2.462-5.5 5.5-5.5s5.5 2.463 5.5 5.5zM1255.567 481.783c0 3.038-2.462 5.5-5.5 5.5-3.037 0-5.5-2.462-5.5-5.5 0-3.037 2.463-5.5 5.5-5.5 3.038 0 5.5 2.463 5.5 5.5zM1236.208 564.27c0 3.038-2.462 5.5-5.5 5.5-3.037 0-5.5-2.462-5.5-5.5 0-3.037 2.463-5.5 5.5-5.5 3.038 0 5.5 2.463 5.5 5.5zM1151.28 654.258c0 3.038-2.463 5.5-5.5 5.5-3.038 0-5.5-2.462-5.5-5.5 0-3.037 2.462-5.5 5.5-5.5 3.037 0 5.5 2.463 5.5 5.5zM1065.95 703.086c0 3.038-2.463 5.5-5.5 5.5-3.038 0-5.5-2.462-5.5-5.5 0-3.037 2.462-5.5 5.5-5.5 3.037 0 5.5 2.463 5.5 5.5zM1135.65 768.24c0 3.04-2.462 5.5-5.5 5.5-3.037 0-5.5-2.46-5.5-5.5 0-3.036 2.463-5.5 5.5-5.5 3.038 0 5.5 2.464 5.5 5.5zM1158.508 750.74c0 3.04-2.463 5.5-5.5 5.5-3.038 0-5.5-2.46-5.5-5.5 0-3.036 2.462-5.5 5.5-5.5 3.037 0 5.5 2.464 5.5 5.5zM1241.543 728.42c0 3.037-2.462 5.5-5.5 5.5-3.037 0-5.5-2.463-5.5-5.5 0-3.038 2.463-5.5 5.5-5.5 3.038 0 5.5 2.462 5.5 5.5zM1253.388 665.26c0 3.04-2.463 5.502-5.5 5.502-3.038 0-5.5-2.463-5.5-5.5 0-3.038 2.462-5.5 5.5-5.5 3.037 0 5.5 2.462 5.5 5.5zM1410.77 615.026c0 3.037-2.46 5.5-5.5 5.5-3.036 0-5.5-2.463-5.5-5.5 0-3.038 2.464-5.5 5.5-5.5 3.04 0 5.5 2.462 5.5 5.5zM1463.047 569.064c0 3.037-2.463 5.5-5.5 5.5-3.038 0-5.5-2.463-5.5-5.5 0-3.038 2.462-5.5 5.5-5.5 3.037 0 5.5 2.462 5.5 5.5zM1548.91 558.205c0 3.037-2.463 5.5-5.5 5.5-3.038 0-5.5-2.463-5.5-5.5 0-3.038 2.462-5.5 5.5-5.5 3.037 0 5.5 2.462 5.5 5.5z" color="#000" stroke-width="3.0000297" overflow="visible"/><path d="M1346.373 793.802l57.79-57.79h47.69l42.825-42.826V638.24l42.732-42.733M1375.374 764.8v-21.505M1426.598 736.012V709.96M1461.848 726.016h25.36M1494.678 661.472h20.814" stroke-width="3"/><path d="M1380.874 737.795c0 3.037-2.462 5.5-5.5 5.5s-5.5-2.463-5.5-5.5c0-3.038 2.462-5.5 5.5-5.5s5.5 2.462 5.5 5.5zM1432.098 704.46c0 3.037-2.462 5.5-5.5 5.5-3.037 0-5.5-2.463-5.5-5.5 0-3.038 2.463-5.5 5.5-5.5 3.038 0 5.5 2.462 5.5 5.5zM1498.207 726.016c0 3.038-2.462 5.5-5.5 5.5-3.037 0-5.5-2.462-5.5-5.5 0-3.037 2.463-5.5 5.5-5.5 3.038 0 5.5 2.463 5.5 5.5zM1526.492 661.472c0 3.038-2.463 5.5-5.5 5.5-3.038 0-5.5-2.462-5.5-5.5 0-3.037 2.462-5.5 5.5-5.5 3.037 0 5.5 2.463 5.5 5.5zM1547.515 590.95c0 3.038-2.462 5.5-5.5 5.5-3.037 0-5.5-2.462-5.5-5.5 0-3.037 2.463-5.5 5.5-5.5 3.038 0 5.5 2.463 5.5 5.5zM1459.282 664.752c0 3.037-2.462 5.5-5.5 5.5-3.037 0-5.5-2.463-5.5-5.5 0-3.038 2.463-5.5 5.5-5.5 3.038 0 5.5 2.462 5.5 5.5z" color="#000" stroke-width="3.0000297" overflow="visible"/><path d="M1474.242 713.622v-28.43l-15.857-15.858" stroke-width="3"/></g><text style="line-height:125%;-inkscape-font-specification:Liberation Mono" x="-449.247" y="1247.754" transform="rotate(-90 323.82 323.82)" font-size="18.544" letter-spacing="0" word-spacing="0" fill="#fff" font-family="Sans"><tspan x="-449.247" y="1247.754" style="-inkscape-font-specification:Liberation Mono" font-family="Liberation Mono">tree 1.0 - TtpHTTF</tspan></text><g fill="#d3bc5f" color="#000"><path d="M1166.052 1266.283c-1.78 0-3.218 1.438-3.218 3.22v34.624c0 1.78 1.438 3.22 3.218 3.22h14.125c1.78 0 3.188-1.44 3.188-3.22v-34.625c0-1.78-1.407-3.22-3.188-3.22h-14.125zm6.438 16.782h1.25c.577 0 1.03.454 1.03 1.03v5.438c0 .578-.453 1.032-1.03 1.032h-1.25c-.577 0-1.063-.454-1.063-1.032v-5.437c0-.577.486-1.03 1.063-1.03zM1200.334 1302.648c-1.78 0-3.22 1.438-3.22 3.218v34.625c0 1.782 1.44 3.22 3.22 3.22h14.125c1.78 0 3.187-1.438 3.187-3.22v-34.624c0-1.78-1.407-3.218-3.188-3.218h-14.126zm6.438 16.78h1.25c.577 0 1.03.455 1.03 1.032v5.438c0 .577-.453 1.03-1.03 1.03h-1.25c-.578 0-1.063-.453-1.063-1.03v-5.438c0-.577.484-1.03 1.062-1.03zM1252.357 1321.84c-1.78 0-3.22 1.44-3.22 3.22v34.624c0 1.78 1.44 3.22 3.22 3.22h14.125c1.78 0 3.187-1.44 3.187-3.22v-34.625c0-1.78-1.407-3.22-3.188-3.22h-14.125zm6.437 16.782h1.25c.577 0 1.032.454 1.032 1.03v5.44c0 .576-.455 1.03-1.032 1.03h-1.25c-.577 0-1.062-.454-1.062-1.03v-5.44c0-.576.485-1.03 1.062-1.03zM1296.298 1324.87c-1.78 0-3.218 1.44-3.218 3.22v34.625c0 1.78 1.438 3.22 3.218 3.22h14.125c1.78 0 3.188-1.44 3.188-3.22v-34.625c0-1.78-1.406-3.22-3.187-3.22h-14.125zm6.438 16.782h1.25c.577 0 1.03.455 1.03 1.032v5.437c0 .578-.453 1.032-1.03 1.032h-1.25c-.577 0-1.063-.454-1.063-1.03v-5.438c0-.577.486-1.032 1.063-1.032zM1335.442 1296.587c-1.78 0-3.22 1.438-3.22 3.22v34.624c0 1.78 1.44 3.22 3.22 3.22h14.125c1.78 0 3.187-1.44 3.187-3.22v-34.624c0-1.78-1.406-3.22-3.187-3.22h-14.125zm6.437 16.78h1.25c.576 0 1.03.455 1.03 1.032v5.437c0 .577-.454 1.03-1.03 1.03h-1.25c-.578 0-1.063-.453-1.063-1.03v-5.438c0-.578.485-1.032 1.062-1.032zM1374.333 1278.404c-1.78 0-3.22 1.438-3.22 3.22v34.624c0 1.78 1.44 3.22 3.22 3.22h14.125c1.78 0 3.187-1.44 3.187-3.22v-34.625c0-1.78-1.407-3.22-3.187-3.22h-14.125zm6.437 16.78h1.25c.577 0 1.03.456 1.03 1.033v5.437c0 .577-.453 1.03-1.03 1.03h-1.25c-.577 0-1.062-.453-1.062-1.03v-5.437c0-.577.485-1.032 1.062-1.032zM1408.425 1248.352c-1.78 0-3.218 1.438-3.218 3.22v34.624c0 1.78 1.438 3.22 3.218 3.22h14.125c1.78 0 3.188-1.44 3.188-3.22v-34.625c0-1.78-1.407-3.218-3.188-3.218h-14.125zm6.438 16.78h1.25c.577 0 1.03.455 1.03 1.033v5.437c0 .577-.453 1.03-1.03 1.03h-1.25c-.577 0-1.063-.453-1.063-1.03v-5.437c0-.578.486-1.032 1.063-1.032z" overflow="visible"/></g></svg>