<svg xmlns="http://www.w3.org/2000/svg" width="1068" height="610" viewBox="0 0 1068 610"><path d="M469 253c0-65-102-90-182-90-119 0-171 12-171 133 0 68 23 163 146 163 55 0 120-8 170-82 19-31 37-83 37-124zm316-88c-99 0-179 23-179 88 0 24 9 74 28 112 35 66 90 94 171 94 125 0 150-64 150-190 0-79-43-104-170-104zm-498-20c104 0 190 37 249 37 65 0 137-36 268-36 49 0 158 16 206 22 7 1 9 2 9 10 1 16 1 32 1 49 0 6-3 8-6 8-15 0-23 17-26 33-5 30-11 60-18 89-22 88-75 118-169 118-123 0-170-50-213-165-12-30-13-62-52-62-29 0-41 30-52 62-33 85-75 164-217 164-52 0-127-21-153-83-12-31-27-107-30-130-3-15-10-24-24-29-6-1-7-6-7-11 0-14 0-36 1-45 1-10 3-13 14-14 20 0 142-17 219-17z"/></svg>