<svg width="643" height="76" viewBox="0 0 643 76" xmlns="http://www.w3.org/2000/svg"><title>Slice 1</title><g fill="#1A1918" fill-rule="evenodd"><path d="M246.23.217V76h-1.79V.216h1.79M37.942 61.827c6.7 0 12.158-2.27 16.368-6.82 4.212-4.547 6.316-10.19 6.316-16.925 0-6.736-2.104-12.377-6.316-16.925-4.21-4.547-9.7-6.82-16.47-6.82-6.702 0-12.16 2.273-16.368 6.82-4.212 4.548-6.315 10.19-6.315 16.925 0 6.735 2.103 12.378 6.315 16.925 4.21 4.55 9.7 6.82 16.47 6.82zm-27.08 3.26C3.62 57.826 0 48.826 0 38.08c0-10.777 3.62-19.788 10.862-27.03C18.104 3.813 27.112.19 37.892.19 48.67.19 57.678 3.812 64.92 11.053c7.242 7.24 10.863 16.252 10.863 27.03 0 10.777-3.62 19.786-10.863 27.028-7.242 7.242-16.25 10.866-27.028 10.866-10.78 0-19.788-3.63-27.03-10.89zM87.05 75.976V.19H92.1l47.49 47.49V.19h15.157v75.786h-5.56l-46.984-46.988v46.988H87.05M170.26 75.976V.24l55.674-.05v14.146h-40.518v16.168h30.364V44.6h-30.364v17.227h40.417v14.15H170.26M265.063 76V.217h5.053l47.49 47.49V.217h15.157V76h-5.558L280.22 29.014V76h-15.157M381.972 61.852c6.7 0 12.156-2.272 16.37-6.82 4.208-4.546 6.313-10.186 6.313-16.924 0-6.737-2.105-12.378-6.314-16.925-4.212-4.547-9.7-6.82-16.47-6.82-6.702 0-12.158 2.273-16.37 6.82-4.21 4.547-6.314 10.188-6.314 16.925 0 6.738 2.103 12.378 6.315 16.924 4.212 4.548 9.7 6.82 16.472 6.82zm-27.08 3.26c-7.244-7.257-10.864-16.26-10.864-27.004 0-10.778 3.62-19.786 10.865-27.03C362.133 3.84 371.143.22 381.92.22c10.778 0 19.788 3.62 27.03 10.86 7.24 7.244 10.863 16.252 10.863 27.03 0 10.78-3.623 19.788-10.863 27.03C401.708 72.378 392.698 76 381.92 76c-10.778 0-19.786-3.63-27.027-10.89zM446.235 30.53h21.22c6.094-.102 9.227-2.88 9.396-8.337-.168-4.983-3.25-7.578-9.244-7.78h-21.37V30.53zM476.7 42.958L495.596 76h-17.38l-18.138-31.323h-13.843V76H431.08V.217h33.04c17.684 0 26.526 7.275 26.526 21.824 0 10.948-4.65 17.92-13.946 20.918zM565.315.217v14.146h-25.26V76h-15.158V14.363h-25.26V.217h65.678M576.58 76V.217h15.158V30.53h35.317V.166h15.156v75.782L627.056 76V44.677h-35.317V76H576.58"/></g></svg>