<?xml version="1.0" encoding="UTF-8" standalone="no"?>
<svg width="780px" height="76px" viewBox="0 0 780 76" version="1.1" xmlns="http://www.w3.org/2000/svg" xmlns:xlink="http://www.w3.org/1999/xlink" xmlns:sketch="http://www.bohemiancoding.com/sketch/ns">
    <!-- Generator: Sketch 3.3.1 (12002) - http://www.bohemiancoding.com/sketch -->
    <title>Slice 1</title>
    <desc>Created with Sketch.</desc>
    <defs></defs>
    <g id="Page-1" stroke="none" stroke-width="1" fill="none" fill-rule="evenodd" sketch:type="MSPage">
        <g id="One_North_Horizontal_Color" sketch:type="MSLayerGroup">
            <path d="M246.229,0.217 L246.229,75.999 L244.441,75.999 L244.44,0.217 L246.229,0.217" id="Fill-1" fill="#2E2E2D" sketch:type="MSShapeGroup"></path>
            <path d="M693.23,0.217 L693.23,75.9969988 L678.448267,75.9969988 L678.44,0.217 L693.23,0.217" id="Fill-1-Copy" fill="#D0232B" sketch:type="MSShapeGroup"></path>
            <path d="M37.942,61.827 C44.643,61.827 50.1,59.556 54.31,55.007 C58.522,50.46 60.626,44.817 60.626,38.082 C60.626,31.346 58.522,25.705 54.31,21.157 C50.1,16.61 44.611,14.336 37.841,14.336 C31.138,14.336 25.681,16.61 21.472,21.157 C17.26,25.705 15.157,31.346 15.157,38.082 C15.157,44.817 17.26,50.46 21.472,55.007 C25.681,59.556 31.172,61.827 37.942,61.827 L37.942,61.827 Z M10.862,65.086 C3.62,57.827 0,48.827 0,38.082 C0,27.305 3.62,18.294 10.862,11.053 C18.104,3.812 27.112,0.19 37.892,0.19 C48.669,0.19 57.678,3.812 64.92,11.053 C72.162,18.294 75.783,27.305 75.783,38.082 C75.783,48.86 72.162,57.869 64.92,65.111 C57.678,72.352 48.669,75.976 37.892,75.976 C27.112,75.976 18.104,72.345 10.862,65.086 L10.862,65.086 Z" id="Fill-2" fill="#D1222B" sketch:type="MSShapeGroup"></path>
            <path d="M741.942,61.827 C748.643,61.827 754.1,59.556 758.31,55.007 C762.522,50.46 764.626,44.817 764.626,38.082 C764.626,31.346 762.522,25.705 758.31,21.157 C754.1,16.61 748.611,14.336 741.841,14.336 C735.138,14.336 729.681,16.61 725.472,21.157 C721.26,25.705 719.157,31.346 719.157,38.082 C719.157,44.817 721.26,50.46 725.472,55.007 C729.681,59.556 735.172,61.827 741.942,61.827 L741.942,61.827 Z M714.862,65.086 C707.62,57.827 704,48.827 704,38.082 C704,27.305 707.62,18.294 714.862,11.053 C722.104,3.812 731.112,0.19 741.892,0.19 C752.669,0.19 761.678,3.812 768.92,11.053 C776.162,18.294 779.783,27.305 779.783,38.082 C779.783,48.86 776.162,57.869 768.92,65.111 C761.678,72.352 752.669,75.976 741.892,75.976 C731.112,75.976 722.104,72.345 714.862,65.086 L714.862,65.086 Z" id="Fill-2-Copy" fill="#D0232B" sketch:type="MSShapeGroup"></path>
            <path d="M87.049,75.976 L87.049,0.19 L92.102,0.19 L139.592,47.681 L139.592,0.19 L154.749,0.19 L154.749,75.976 L149.191,75.976 L102.206,28.988 L102.206,75.976 L87.049,75.976" id="Fill-3" fill="#D1222B" sketch:type="MSShapeGroup"></path>
            <path d="M170.26,75.976 L170.26,0.241 L225.934,0.19 L225.934,14.336 L185.416,14.336 L185.416,30.504 L215.78,30.504 L215.78,44.6 L185.416,44.6 L185.416,61.827 L225.833,61.827 L225.833,75.976 L170.26,75.976" id="Fill-4" fill="#D1222B" sketch:type="MSShapeGroup"></path>
            <path d="M265.063,76 L265.063,0.217 L270.116,0.217 L317.605,47.707 L317.605,0.217 L332.763,0.217 L332.763,76 L327.205,76 L280.22,29.014 L280.22,76 L265.063,76" id="Fill-5" fill="#D1222B" sketch:type="MSShapeGroup"></path>
            <path d="M381.972,61.852 C388.673,61.852 394.128,59.58 398.341,55.032 C402.55,50.486 404.655,44.846 404.655,38.108 C404.655,31.371 402.55,25.73 398.341,21.183 C394.128,16.636 388.64,14.363 381.871,14.363 C375.168,14.363 369.712,16.636 365.501,21.183 C361.289,25.73 359.186,31.371 359.186,38.108 C359.186,44.846 361.289,50.486 365.501,55.032 C369.712,59.58 375.201,61.852 381.972,61.852 L381.972,61.852 Z M354.893,65.111 C347.648,57.855 344.028,48.852 344.028,38.108 C344.028,27.33 347.648,18.322 354.893,11.079 C362.134,3.837 371.142,0.217 381.921,0.217 C392.698,0.217 401.708,3.837 408.95,11.079 C416.19,18.322 419.813,27.33 419.813,38.108 C419.813,48.887 416.19,57.896 408.95,65.138 C401.708,72.379 392.698,76 381.921,76 C371.142,76 362.134,72.37 354.893,65.111 L354.893,65.111 Z" id="Fill-6" fill="#D1222B" sketch:type="MSShapeGroup"></path>
            <path d="M446.235,30.53 L467.455,30.53 C473.549,30.428 476.682,27.649 476.851,22.193 C476.682,17.21 473.6,14.615 467.606,14.413 L446.235,14.413 L446.235,30.53 L446.235,30.53 Z M476.7,42.958 L495.596,76 L478.216,76 L460.078,44.677 L446.235,44.677 L446.235,76 L431.079,76 L431.079,0.217 L464.121,0.217 C481.804,0.217 490.646,7.492 490.646,22.041 C490.646,32.988 485.996,39.96 476.7,42.958 L476.7,42.958 Z" id="Fill-7" fill="#D1222B" sketch:type="MSShapeGroup"></path>
            <path d="M565.315,0.217 L565.315,14.363 L540.055,14.363 L540.055,76 L524.897,76 L524.897,14.363 L499.637,14.363 L499.637,0.217 L565.315,0.217" id="Fill-8" fill="#D1222B" sketch:type="MSShapeGroup"></path>
            <path d="M576.581,76 L576.581,0.217 L591.738,0.217 L591.738,30.53 L627.055,30.53 L627.055,0.166 L642.211,0.166 L642.211,75.948 L627.055,76 L627.055,44.677 L591.738,44.677 L591.738,76 L576.581,76" id="Fill-9" fill="#D1222B" sketch:type="MSShapeGroup"></path>
        </g>
        <rect id="Rectangle-1" fill="#2E2E2E" sketch:type="MSShapeGroup" x="653" y="61.21" width="14.79" height="14.79"></rect>
    </g>
</svg>